<svg width="16" height="16" viewBox="0 0 16 16" fill="none" xmlns="http://www.w3.org/2000/svg">
<g clip-path="url(#clip0)">
<path d="M13.515 2.31852C10.4233 -0.772831 5.41056 -0.773176 2.31852 2.31852C-0.773176 5.41022 -0.772831 10.423 2.31852 13.515C5.41022 16.606 10.423 16.6063 13.515 13.515C16.6063 10.423 16.606 5.41056 13.515 2.31852ZM8.94905 11.3589C8.94905 11.9292 8.48677 12.3915 7.91642 12.3915C7.34606 12.3915 6.88378 11.9292 6.88378 11.3589V7.22834C6.88378 6.65798 7.34606 6.19571 7.91642 6.19571C8.48677 6.19571 8.94905 6.65798 8.94905 7.22834V11.3589ZM7.89817 5.46323C7.30338 5.46323 6.90685 5.04191 6.91924 4.52181C6.90685 3.97658 7.30338 3.56801 7.91022 3.56801C8.51741 3.56801 8.90155 3.97693 8.91428 4.52181C8.91394 5.04191 8.51775 5.46323 7.89817 5.46323Z" fill="#989898"/>
</g>
<defs>
<clipPath id="clip0">
<rect width="15.8333" height="15.8333" fill="white"/>
</clipPath>
</defs>
</svg>
