<svg width="19" height="19" viewBox="0 0 19 19" fill="none" xmlns="http://www.w3.org/2000/svg">
<path d="M16.2181 2.78237C12.5081 -0.927251 6.49282 -0.927664 2.78237 2.78237C-0.927664 6.49241 -0.927251 12.5077 2.78237 16.2181C6.49241 19.9274 12.5077 19.9278 16.2181 16.2181C19.9278 12.5077 19.9274 6.49282 16.2181 2.78237ZM10.739 13.6308C10.739 14.3152 10.1843 14.8699 9.49985 14.8699C8.81542 14.8699 8.26069 14.3152 8.26069 13.6308V8.67415C8.26069 7.98973 8.81542 7.435 9.49985 7.435C10.1843 7.435 10.739 7.98973 10.739 8.67415V13.6308ZM9.47795 6.55602C8.7642 6.55602 8.28836 6.05044 8.30323 5.42632C8.28836 4.77205 8.7642 4.28175 9.49241 4.28175C10.221 4.28175 10.682 4.77246 10.6973 5.42632C10.6969 6.05044 10.2214 6.55602 9.47795 6.55602Z" fill="white"/>
</svg>
