<svg width="17" height="17" viewBox="0 0 17 17" fill="none" xmlns="http://www.w3.org/2000/svg">
<g clip-path="url(#clip0)">
<path d="M14.8782 2.76562H1.72915C0.775509 2.76562 -0.000976562 3.54211 -0.000976562 4.49578V12.1084C-0.000976562 13.062 0.775509 13.8385 1.72915 13.8385H14.8782C15.8318 13.8385 16.6083 13.062 16.6083 12.1084V4.49578C16.6083 3.54211 15.8319 2.76562 14.8782 2.76562ZM15.9163 12.1084C15.9163 12.6807 15.4506 13.1464 14.8782 13.1464H1.72915C1.15681 13.1464 0.691067 12.6807 0.691067 12.1084V4.49578C0.691067 3.92344 1.15681 3.4577 1.72915 3.4577H14.8782C15.4505 3.4577 15.9163 3.92344 15.9163 4.49578V12.1084H15.9163Z" fill="#49526D"/>
<path d="M16.2623 4.8457H0.345062C0.154055 4.8457 -0.000976562 5.00073 -0.000976562 5.19174V7.26791C-0.000976562 7.45891 0.154055 7.61394 0.345062 7.61394H16.2623C16.4533 7.61394 16.6084 7.45891 16.6084 7.26791V5.19174C16.6083 5.00073 16.4533 4.8457 16.2623 4.8457ZM15.9163 6.92187H0.691067V5.53775H15.9163V6.92187H15.9163Z" fill="#49526D"/>
<path d="M6.57039 9.6875H2.41806C2.22705 9.6875 2.07202 9.84253 2.07202 10.0335C2.07202 10.2245 2.22705 10.3795 2.41806 10.3795H6.57039C6.7614 10.3795 6.91643 10.2245 6.91643 10.0335C6.91643 9.8425 6.7614 9.6875 6.57039 9.6875Z" fill="#49526D"/>
<path d="M6.57576 11.0732H2.42343C2.23242 11.0732 2.07739 11.2283 2.07739 11.4193C2.07739 11.6103 2.23242 11.7653 2.42343 11.7653H6.57576C6.76677 11.7653 6.9218 11.6103 6.9218 11.4193C6.92177 11.2283 6.76677 11.0732 6.57576 11.0732Z" fill="#49526D"/>
<path d="M13.4928 8.99512H12.8008C12.2284 8.99512 11.7627 9.46086 11.7627 10.0332V10.7252C11.7627 11.2976 12.2284 11.7633 12.8008 11.7633H13.4928C14.0652 11.7633 14.5309 11.2976 14.5309 10.7252V10.0332C14.5309 9.46089 14.0652 8.99512 13.4928 8.99512ZM13.8389 10.7253C13.8389 10.9163 13.6838 11.0713 13.4928 11.0713H12.8008C12.6098 11.0713 12.4547 10.9163 12.4547 10.7253V10.0332C12.4547 9.84222 12.6098 9.68719 12.8008 9.68719H13.4928C13.6838 9.68719 13.8389 9.84222 13.8389 10.0332V10.7253Z" fill="#49526D"/>
</g>
<defs>
<clipPath id="clip0">
<rect width="16.6093" height="16.6093" fill="white"/>
</clipPath>
</defs>
</svg>
