<svg width="15" height="15" viewBox="0 0 15 15" fill="none" xmlns="http://www.w3.org/2000/svg">
<g clip-path="url(#clip0)">
<path d="M7.8859 9.93272L8.07469 11.6304C8.08403 11.7149 8.05687 11.7996 8.00017 11.863C7.94347 11.9265 7.86222 11.9627 7.77718 11.9627H6.5801C6.49506 11.9627 6.41381 11.9265 6.35711 11.863C6.30041 11.7996 6.27322 11.7149 6.28259 11.6304L6.47138 9.93272C6.16481 9.70973 5.98158 9.35698 5.98158 8.97003C5.98158 8.30983 6.51843 7.77295 7.17865 7.77295C7.83888 7.77295 8.37573 8.30983 8.37573 8.97003C8.37573 9.35698 8.19247 9.70973 7.8859 9.93272ZM7.17865 8.3715C6.84871 8.3715 6.58013 8.64008 6.58013 8.97003C6.58013 9.19944 6.71048 9.4049 6.92031 9.5066C7.03459 9.56212 7.1015 9.68313 7.08747 9.80908L6.91445 11.3642H7.44283L7.26981 9.80908C7.25578 9.6831 7.3227 9.56212 7.43697 9.5066C7.6468 9.4049 7.77715 9.19944 7.77715 8.97003C7.77718 8.64008 7.5086 8.3715 7.17865 8.3715Z" fill="#49526D"/>
<path d="M2.09012 5.37948H2.98792V4.1824C2.98792 1.87217 4.86738 -0.00732422 7.17765 -0.00732422C9.48791 -0.00732422 11.3674 1.87217 11.3674 4.1824V5.37948H12.2652C12.4306 5.37948 12.5645 5.51334 12.5645 5.67876V13.1604C12.5645 13.8206 12.0276 14.3575 11.3674 14.3575H2.98789C2.3277 14.3575 1.79084 13.8206 1.79084 13.1604V5.67876C1.79084 5.51334 1.9247 5.37948 2.09012 5.37948ZM10.7689 4.1824C10.7689 2.20211 9.15794 0.5912 7.17765 0.5912C5.19735 0.5912 3.58645 2.20211 3.58645 4.1824V5.37948H4.18497V4.1824C4.18497 2.53233 5.52758 1.18972 7.17765 1.18972C8.82772 1.18972 10.1703 2.53236 10.1703 4.1824V5.37948H10.7689V4.1824ZM4.78352 4.1824V5.37948H9.57177V4.1824C9.57177 2.8623 8.49775 1.78828 7.17765 1.78828C5.85754 1.78828 4.78352 2.8623 4.78352 4.1824ZM2.38937 13.1604C2.38937 13.4904 2.65795 13.7589 2.98789 13.7589H11.3674C11.6973 13.7589 11.9659 13.4904 11.9659 13.1604V5.978H2.38937V13.1604Z" fill="#49526D"/>
</g>
<defs>
<clipPath id="clip0">
<rect width="14.3648" height="14.3648" fill="white" transform="matrix(-1 0 0 1 14.3647 0)"/>
</clipPath>
</defs>
</svg>
