<svg width="30" height="30" viewBox="0 0 30 30" fill="none" xmlns="http://www.w3.org/2000/svg">
<g clip-path="url(#clip0)">
<path d="M19.3764 6.69322C17.7493 3.37085 14.3456 1.17432 10.5278 1.17432C5.06491 1.17432 0.620551 5.59346 0.620551 11.0253C0.620551 12.5015 0.93747 13.9163 1.56298 15.2355L0.636932 19.8663C0.519058 20.4558 1.03908 20.9768 1.62867 20.8602L6.31654 19.9334C6.94774 20.2328 7.60071 20.4605 8.27165 20.6173C6.76772 13.4942 12.1669 6.80794 19.3764 6.69322Z" fill="#49526D"/>
<path d="M28.4966 22.4446C28.6584 22.1034 28.7991 21.7558 28.9194 21.4024H28.8885C30.9965 15.2151 26.5634 8.71211 20.0189 8.39547C20.0188 8.39513 20.0187 8.39479 20.0186 8.39446C14.3875 8.13495 9.70898 12.6437 9.70898 18.2344C9.70898 23.6616 14.12 28.0773 19.5455 28.0852C21.0171 28.0832 22.4276 27.7664 23.743 27.1425C28.8771 28.1575 28.4767 28.0853 28.5947 28.0853C29.1283 28.0853 29.5269 27.5964 29.4227 27.0754L28.4966 22.4446Z" fill="#49526D"/>
</g>
<defs>
<clipPath id="clip0">
<rect width="28.8218" height="28.8218" fill="white" transform="translate(0.617188 0.217773)"/>
</clipPath>
</defs>
</svg>
