<svg width="51" height="52" viewBox="0 0 51 52" fill="none" xmlns="http://www.w3.org/2000/svg">
<path d="M39.2509 41.3962C46.7795 33.5491 46.5213 21.0845 38.6741 13.5559C35.0009 10.0318 30.1055 8.0672 25.0151 8.07424C14.1405 8.05911 5.31265 16.8625 5.29763 27.7372C5.29059 32.8275 7.25523 37.7229 10.7793 41.3962L5.6564 48.2255C5.06247 49.0175 5.22295 50.141 6.01486 50.7349C6.80677 51.3288 7.93035 51.1684 8.52428 50.3765L13.4895 43.7551C20.3582 48.7598 29.6719 48.7598 36.5406 43.7551L41.5057 50.3765C42.0997 51.1685 43.2232 51.3289 44.0151 50.7349C44.8072 50.141 44.9676 49.0174 44.3736 48.2255L39.2509 41.3962ZM25.0152 43.9236C16.1097 43.9137 8.89282 36.6968 8.88295 27.7914C8.88295 18.8818 16.1056 11.6591 25.0152 11.6591C33.9247 11.6591 41.1474 18.8818 41.1474 27.7914C41.1474 36.7009 33.9247 43.9236 25.0152 43.9236Z" fill="white"/>
<path d="M15.2193 3.53099C11.6755 0.0753752 6.00137 0.146899 2.54565 3.69073C-0.848201 7.17124 -0.848621 12.7228 2.54481 16.2038C3.24482 16.9036 4.37943 16.9036 5.07934 16.2038L15.2193 6.06561C15.9191 5.36561 15.9191 4.231 15.2193 3.53099ZM4.02896 12.185C2.74909 9.50516 3.88402 6.2951 6.5639 5.01513C8.02956 4.31512 9.7331 4.31512 11.1989 5.01513L4.02896 12.185Z" fill="white"/>
<path d="M47.4837 3.53033C43.9839 0.0315554 38.3107 0.0315554 34.811 3.53033C34.1112 4.23034 34.1112 5.36495 34.811 6.06486L44.9492 16.203C45.6492 16.9028 46.7838 16.9028 47.4837 16.203C50.9825 12.7033 50.9825 7.03016 47.4837 3.53033ZM46.0049 12.1897L46.0013 12.1862L38.8314 5.01626C40.8933 4.06881 43.3256 4.48682 44.9527 6.06843C46.5655 7.67965 46.9872 10.1326 46.0049 12.1897Z" fill="white"/>
<path d="M25.015 15.2441C24.025 15.2441 23.2225 16.0467 23.2225 17.0366V27.1946L18.2035 33.8859C17.6096 34.6779 17.7701 35.8014 18.562 36.3953C19.3539 36.9892 20.4775 36.8287 21.0714 36.0368L26.4488 28.8669C26.6816 28.5567 26.8073 28.1793 26.8073 27.7915V17.0366C26.8074 16.0467 26.0049 15.2441 25.015 15.2441Z" fill="white"/>
</svg>
