<svg width="18" height="19" viewBox="0 0 18 19" fill="none" xmlns="http://www.w3.org/2000/svg">
<path d="M13.0371 10.7525C12.5464 10.2523 11.9623 9.88205 11.3251 9.6579C12.0076 9.17872 12.456 8.37677 12.456 7.46997C12.456 6.00599 11.2876 4.81494 9.85141 4.81494C8.41525 4.81494 7.24683 6.00599 7.24683 7.46997C7.24683 8.37677 7.69522 9.17872 8.37775 9.6579C7.74051 9.88205 7.15645 10.2523 6.66575 10.7525C5.81482 11.6199 5.34619 12.7732 5.34619 13.9999H6.05013C6.05013 11.8633 7.75538 10.125 9.85141 10.125C11.9475 10.125 13.6527 11.8633 13.6527 13.9999H14.3566C14.3566 12.7732 13.888 11.6199 13.0371 10.7525ZM9.85141 9.40743C8.8034 9.40743 7.95077 8.5383 7.95077 7.46997C7.95077 6.40164 8.8034 5.53252 9.85141 5.53252C10.8994 5.53252 11.7521 6.40164 11.7521 7.46997C11.7521 8.5383 10.8994 9.40743 9.85141 9.40743Z" fill="#49526D"/>
<rect x="2.13647" y="1.40918" width="15.3636" height="16.1818" rx="3.5" stroke="#49526D"/>
<line y1="5.31836" x2="3.27273" y2="5.31836" stroke="#49526D"/>
<line y1="9.40918" x2="3.27273" y2="9.40918" stroke="#49526D"/>
<line y1="13.5" x2="3.27273" y2="13.5" stroke="#49526D"/>
</svg>
