<svg width="14" height="14" viewBox="0 0 14 14" fill="none" xmlns="http://www.w3.org/2000/svg">
<g clip-path="url(#clip0)">
<path d="M11.9463 8.7324C11.1839 8.02446 10.2764 7.50037 9.28632 7.18312C10.3468 6.50491 11.0435 5.36987 11.0435 4.08643C11.0435 2.01437 9.22802 0.328613 6.99658 0.328613C4.76514 0.328613 2.94971 2.01437 2.94971 4.08643C2.94971 5.36987 3.6464 6.50491 4.70687 7.18312C3.71675 7.50037 2.80927 8.02446 2.04684 8.7324C0.724719 9.96012 -0.00341797 11.5924 -0.00341797 13.3286H1.09033C1.09033 10.3045 3.73986 7.84424 6.99658 7.84424C10.2533 7.84424 12.9028 10.3045 12.9028 13.3286H13.9966C13.9966 11.5924 13.2684 9.96012 11.9463 8.7324ZM6.99658 6.82861C5.36823 6.82861 4.04346 5.59849 4.04346 4.08643C4.04346 2.57436 5.36823 1.34424 6.99658 1.34424C8.62493 1.34424 9.94971 2.57436 9.94971 4.08643C9.94971 5.59849 8.62493 6.82861 6.99658 6.82861Z" fill="#49526D"/>
</g>
<defs>
<clipPath id="clip0">
<rect width="14" height="13" fill="white" transform="translate(0 0.328125)"/>
</clipPath>
</defs>
</svg>
