<svg width="24" height="20" viewBox="0 0 24 20" fill="none" xmlns="http://www.w3.org/2000/svg">
<path d="M11.9983 4.30664L3.43884 11.363C3.43884 11.373 3.43634 11.3876 3.43134 11.4076C3.42644 11.4274 3.42383 11.4418 3.42383 11.452V18.5974C3.42383 18.8554 3.51815 19.079 3.70674 19.2672C3.89528 19.4556 4.11854 19.5504 4.37659 19.5504H10.0927V13.834H13.904V19.5506H19.6201C19.8781 19.5506 20.1016 19.456 20.2899 19.2672C20.4785 19.0792 20.5731 18.8554 20.5731 18.5974V11.452C20.5731 11.4124 20.5677 11.3825 20.5581 11.363L11.9983 4.30664Z" fill="white"/>
<path d="M23.8339 9.75431L20.574 7.045V0.971337C20.574 0.832488 20.5294 0.718301 20.4398 0.628932C20.351 0.539668 20.2368 0.495036 20.0976 0.495036H17.2395C17.1005 0.495036 16.9864 0.539668 16.897 0.628932C16.8077 0.718301 16.7632 0.83254 16.7632 0.971337V3.87414L13.131 0.837232C12.8138 0.57919 12.4366 0.450195 11.9999 0.450195C11.5632 0.450195 11.1861 0.57919 10.8685 0.837232L0.164929 9.75431C0.0657066 9.83356 0.0113245 9.94024 0.00120927 10.0742C-0.00885378 10.2081 0.0258194 10.3251 0.105333 10.4243L1.02827 11.5259C1.10778 11.6151 1.21185 11.6697 1.3409 11.6897C1.46004 11.6997 1.57918 11.6649 1.69832 11.5855L11.9995 2.99584L22.3009 11.5855C22.3804 11.6547 22.4845 11.6893 22.6135 11.6893H22.6582C22.7871 11.6697 22.8909 11.6147 22.9709 11.5257L23.8939 10.4242C23.9733 10.3248 24.008 10.2081 23.9977 10.074C23.9876 9.9404 23.933 9.83372 23.8339 9.75431Z" fill="white"/>
</svg>
