<svg width="21" height="17" viewBox="0 0 21 17" fill="none" xmlns="http://www.w3.org/2000/svg">
<path d="M10.6653 3.92209L3.53235 9.80242C3.53235 9.81072 3.53026 9.82293 3.52609 9.83957C3.52201 9.85608 3.51984 9.86807 3.51984 9.87659V15.831C3.51984 16.046 3.59844 16.2324 3.7556 16.3893C3.91271 16.5462 4.09877 16.6252 4.3138 16.6252H9.07724V11.8615H12.2533V16.6254H17.0167C17.2317 16.6254 17.418 16.5466 17.5749 16.3893C17.7321 16.2325 17.8109 16.0461 17.8109 15.831V9.87659C17.8109 9.84357 17.8064 9.81863 17.7984 9.80242L10.6653 3.92209Z" fill="#989898"/>
<path d="M20.5283 8.46199L17.8117 6.20423V1.14284C17.8117 1.02713 17.7745 0.931978 17.6998 0.857505C17.6258 0.783118 17.5306 0.745924 17.4147 0.745924H15.0329C14.9171 0.745924 14.822 0.783118 14.7474 0.857505C14.6731 0.931978 14.6359 1.02718 14.6359 1.14284V3.56185L11.6091 1.03109C11.3448 0.816053 11.0305 0.708557 10.6665 0.708557C10.3026 0.708557 9.98835 0.816053 9.72373 1.03109L0.804077 8.46199C0.721392 8.52803 0.676073 8.61693 0.667644 8.7286C0.659258 8.84018 0.688152 8.93764 0.754414 9.02028L1.52352 9.93829C1.58979 10.0127 1.67651 10.0582 1.78405 10.0748C1.88333 10.0832 1.98262 10.0541 2.0819 9.988L10.6663 2.82993L19.2507 9.98796C19.317 10.0457 19.4037 10.0745 19.5112 10.0745H19.5485C19.6559 10.0581 19.7424 10.0123 19.809 9.93812L20.5782 9.02023C20.6444 8.93742 20.6733 8.84013 20.6647 8.72842C20.6563 8.61706 20.6108 8.52816 20.5283 8.46199Z" fill="#989898"/>
</svg>
