<svg width="17" height="16" viewBox="0 0 17 16" fill="none" xmlns="http://www.w3.org/2000/svg">
<path d="M7.06363 6.8323L4.42469 4.19348C4.23613 4.00479 3.95237 3.94802 3.7057 4.05021C3.45964 4.15253 3.29862 4.39327 3.29862 4.65988V6.63902H0.659796C0.295591 6.63902 0 6.93449 0 7.2987C0 7.6629 0.295591 7.95837 0.659796 7.95837H3.29862V9.93752C3.29862 10.2041 3.45964 10.4449 3.7057 10.5472C3.95237 10.6494 4.23613 10.5926 4.42469 10.404L7.06363 7.7651C7.32154 7.50719 7.32154 7.0902 7.06363 6.8323V6.8323Z" fill="white"/>
<path fill-rule="evenodd" clip-rule="evenodd" d="M15.2361 9.5V11.8749C15.2361 12.2384 14.9405 12.5346 14.5763 12.5346H12.5971V2.63882C12.5971 2.07542 12.2382 1.57206 11.6986 1.3847L11.5033 1.31935H14.5763C14.9405 1.31935 15.2361 1.61555 15.2361 1.97915V9.23594V9.5ZM16.5554 1.97915V9.23594V11.8749C16.5554 12.9661 15.6674 13.854 14.5763 13.854H12.5971V14.5137C12.5971 15.2414 12.0054 15.8332 11.2778 15.8332C11.1372 15.8332 11.0033 15.8134 10.8687 15.7718L6.89849 14.4484C6.35889 14.261 6 13.7576 6 13.1942V10.5961C6.15705 10.586 6.30884 10.5199 6.4247 10.404L9.06364 7.7651C9.32154 7.50719 9.32154 7.0902 9.06364 6.8323L6.4247 4.19348C6.30884 4.07754 6.15705 4.01141 6 4.00135V1.31935C6 0.591667 6.59179 0 7.31947 0C7.33765 0 7.35521 0.00375889 7.37276 0.00751595C7.38636 0.0104264 7.39995 0.0133357 7.41381 0.0144957C7.42403 0.0131299 7.43366 0.0103659 7.44324 0.00761425C7.45654 0.0037952 7.46976 0 7.48436 0H14.5763C15.6674 0 16.5554 0.887983 16.5554 1.97915Z" fill="white"/>
</svg>
