<svg width="94" height="41" viewBox="0 0 94 41" fill="none" xmlns="http://www.w3.org/2000/svg">
<path d="M58.9619 15.588V26.4414H57.4114V21.6039H51.1785V26.4414H49.628V15.588H51.1785V20.255H57.4114V15.588H58.9619ZM68.2574 26.5654C66.8103 26.5654 65.6836 26.152 64.8773 25.3251C64.0711 24.4981 63.668 23.3094 63.668 21.759V15.588H65.2185V21.6969C65.2185 24.0227 66.2366 25.1855 68.2729 25.1855C69.2652 25.1855 70.0249 24.9013 70.5521 24.3328C71.0793 23.7539 71.3429 22.8753 71.3429 21.6969V15.588H72.8468V21.759C72.8468 23.3198 72.4437 24.5136 71.6374 25.3406C70.8312 26.1572 69.7045 26.5654 68.2574 26.5654ZM84.8788 20.8132C85.5093 20.9889 86.0055 21.3093 86.3673 21.7745C86.729 22.2293 86.9099 22.8081 86.9099 23.511C86.9099 24.4516 86.5533 25.1752 85.8401 25.6817C85.1372 26.1882 84.1087 26.4414 82.7546 26.4414H77.576V15.588H82.4445C83.6849 15.588 84.6411 15.8361 85.3129 16.3323C85.9951 16.8284 86.3362 17.5158 86.3362 18.3944C86.3362 18.9629 86.2019 19.4539 85.9331 19.8674C85.6747 20.2808 85.3233 20.5961 84.8788 20.8132ZM79.1265 16.8439V20.317H82.305C83.1009 20.317 83.7108 20.1723 84.1346 19.8829C84.5687 19.5831 84.7858 19.149 84.7858 18.5805C84.7858 18.012 84.5687 17.583 84.1346 17.2936C83.7108 16.9938 83.1009 16.8439 82.305 16.8439H79.1265ZM82.6926 25.1855C83.5712 25.1855 84.2328 25.0408 84.6772 24.7514C85.1217 24.462 85.3439 24.0072 85.3439 23.387C85.3439 22.1776 84.4602 21.5729 82.6926 21.5729H79.1265V25.1855H82.6926Z" fill="#2C989B"/>
<rect x="0.5" y="0.5" width="40" height="40" stroke="#2C989B"/>
</svg>
