<svg width="17" height="16" viewBox="0 0 17 16" fill="none" xmlns="http://www.w3.org/2000/svg">
<g clip-path="url(#clip0)">
<path d="M10.729 8.74469C10.3642 8.74469 10.0693 9.04029 10.0693 9.40437V12.0433C10.0693 12.4068 9.77372 12.703 9.40951 12.703H7.43037V2.80725C7.43037 2.24385 7.07148 1.74049 6.53188 1.55313L6.33655 1.48778H9.40951C9.77372 1.48778 10.0693 1.78397 10.0693 2.14757V4.12672C10.0693 4.49081 10.3642 4.7864 10.729 4.7864C11.0938 4.7864 11.3887 4.49081 11.3887 4.12672V2.14757C11.3887 1.05641 10.5007 0.168427 9.40951 0.168427H2.31761C2.29249 0.168427 2.27147 0.179661 2.24707 0.182922C2.2153 0.180265 2.18498 0.168427 2.15272 0.168427C1.42504 0.168427 0.833252 0.760093 0.833252 1.48778V13.3627C0.833252 13.9261 1.19214 14.4294 1.73174 14.6168L5.702 15.9402C5.83657 15.9818 5.97041 16.0016 6.11102 16.0016C6.8387 16.0016 7.43037 15.4098 7.43037 14.6821V14.0225H9.40951C10.5007 14.0225 11.3887 13.1345 11.3887 12.0433V9.40437C11.3887 9.04029 11.0938 8.74469 10.729 8.74469Z" fill="#989898"/>
<path d="M16.4731 6.29754L13.8341 3.65872C13.6456 3.47003 13.3618 3.41326 13.1151 3.51545C12.8691 3.61777 12.708 3.85852 12.708 4.12512V6.10426H10.0692C9.70502 6.10426 9.40942 6.39973 9.40942 6.76394C9.40942 7.12814 9.70502 7.42361 10.0692 7.42361H12.708V9.40276C12.708 9.66936 12.8691 9.91011 13.1151 10.0124C13.3618 10.1146 13.6456 10.0578 13.8341 9.86928L16.4731 7.23034C16.731 6.97243 16.731 6.55544 16.4731 6.29754Z" fill="#989898"/>
</g>
<defs>
<clipPath id="clip0">
<rect width="15.8333" height="15.8333" fill="white" transform="translate(0.833252 0.166641)"/>
</clipPath>
</defs>
</svg>
