<svg width="94" height="41" viewBox="0 0 94 41" fill="none" xmlns="http://www.w3.org/2000/svg">
<path d="M58.9619 15.588V26.4414H57.4114V21.6039H51.1785V26.4414H49.628V15.588H51.1785V20.255H57.4114V15.588H58.9619ZM68.2574 26.5654C66.8103 26.5654 65.6836 26.152 64.8773 25.3251C64.0711 24.4981 63.668 23.3094 63.668 21.759V15.588H65.2185V21.6969C65.2185 24.0227 66.2366 25.1855 68.2729 25.1855C69.2652 25.1855 70.0249 24.9013 70.5521 24.3328C71.0793 23.7539 71.3429 22.8753 71.3429 21.6969V15.588H72.8468V21.759C72.8468 23.3198 72.4437 24.5136 71.6374 25.3406C70.8312 26.1572 69.7045 26.5654 68.2574 26.5654ZM84.8788 20.8132C85.5093 20.9889 86.0055 21.3093 86.3673 21.7745C86.729 22.2293 86.9099 22.8081 86.9099 23.511C86.9099 24.4516 86.5533 25.1752 85.8401 25.6817C85.1372 26.1882 84.1087 26.4414 82.7546 26.4414H77.576V15.588H82.4445C83.6849 15.588 84.6411 15.8361 85.3129 16.3323C85.9951 16.8284 86.3362 17.5158 86.3362 18.3944C86.3362 18.9629 86.2019 19.4539 85.9331 19.8674C85.6747 20.2808 85.3233 20.5961 84.8788 20.8132ZM79.1265 16.8439V20.317H82.305C83.1009 20.317 83.7108 20.1723 84.1346 19.8829C84.5687 19.5831 84.7858 19.149 84.7858 18.5805C84.7858 18.012 84.5687 17.583 84.1346 17.2936C83.7108 16.9938 83.1009 16.8439 82.305 16.8439H79.1265ZM82.6926 25.1855C83.5712 25.1855 84.2328 25.0408 84.6772 24.7514C85.1217 24.462 85.3439 24.0072 85.3439 23.387C85.3439 22.1776 84.4602 21.5729 82.6926 21.5729H79.1265V25.1855H82.6926Z" fill="#2C989B"/>
<rect x="0.5" y="0.5" width="40" height="40" stroke="#2C989B"/>
<path d="M35.3444 22.8824C34.6346 22.1339 33.7764 21.6132 32.7556 21.246C33.5117 20.7545 34.1344 20.2003 34.6307 19.5067C35.3731 18.4681 35.7624 17.3051 35.7338 16.0425C35.7012 14.5272 35.1519 13.1919 34.0792 12.0911C32.9211 10.8994 31.5042 10.196 29.8387 10.1646C28.0144 10.1298 26.189 10.1398 24.3638 10.1498C23.5894 10.1541 22.8151 10.1583 22.0408 10.1591C21.3989 10.1597 21.2323 10.3298 21.229 10.9781C21.2231 14.1903 21.2185 17.4027 21.2152 20.6153C21.2152 20.8641 21.143 20.9141 20.9053 20.9136C16.763 20.9066 12.6205 20.9066 8.4775 20.9136C8.22436 20.9136 8.15652 20.8503 8.15707 20.596C8.1659 17.1908 8.16773 13.7858 8.16259 10.3809C8.15927 10.3353 8.15927 10.2895 8.16259 10.2439C8.18961 10.0667 8.12288 9.994 7.93757 10.0061C7.73574 10.0238 7.53274 10.0238 7.33091 10.0061C7.07556 9.97639 7 10.0507 7 10.3254C7.00882 17.7772 7.01121 25.2275 7.00717 32.6764C7.01022 32.7314 7.01022 32.7865 7.00717 32.8415C6.99283 32.9626 7.04467 33.0001 7.1638 32.9962C7.39299 32.9816 7.62289 32.9816 7.85209 32.9962C8.10027 33.0188 8.17251 32.9439 8.17196 32.6858C8.16719 30.9429 8.16642 29.2 8.16565 27.4572C8.1649 25.7766 8.16416 24.0961 8.15983 22.4157C8.15983 22.1647 8.2216 22.0959 8.4764 22.0964C12.6102 22.1045 16.7436 22.1045 20.8766 22.0964C21.1667 22.0964 21.2196 22.1784 21.218 22.4476C21.2014 25.6873 21.1922 28.927 21.1904 32.1667C21.1904 32.743 21.3934 32.945 21.9587 32.945H30.6389C32.3232 32.9478 33.8013 32.4117 35.051 31.2822C36.2643 30.1853 36.9261 28.8125 36.9945 27.1855C37.0629 25.5282 36.4899 24.09 35.3444 22.8824ZM22.3464 16.152C22.3464 15.7849 22.3467 15.4178 22.347 15.0507C22.3479 13.9084 22.3488 12.7659 22.3409 11.6238C22.3409 11.4003 22.4087 11.353 22.6166 11.3541C23.8332 11.3575 25.0498 11.3574 26.2663 11.3572C27.3814 11.3571 28.4965 11.3569 29.6114 11.3596C31.8809 11.3662 33.9733 12.9734 34.4647 15.1668C34.7956 16.6529 34.4339 18.0102 33.4014 19.1594C32.3083 20.3764 30.9295 20.9312 29.2976 20.9235C27.0949 20.9132 24.8918 20.9165 22.6883 20.9334C22.3899 20.9334 22.3353 20.8453 22.3381 20.5707C22.3498 19.4523 22.3485 18.334 22.3472 17.2156C22.3468 16.8611 22.3464 16.5065 22.3464 16.152ZM34.7157 29.9271C33.638 31.1512 32.2686 31.7204 30.6599 31.7314C29.1292 31.7418 27.5986 31.7431 26.0681 31.7445C24.9355 31.7455 23.803 31.7465 22.6707 31.7512C22.4501 31.7512 22.3761 31.7104 22.3778 31.4721C22.387 30.3217 22.386 29.171 22.385 28.0205C22.3847 27.6611 22.3844 27.3016 22.3844 26.9422H22.3761C22.3761 26.5748 22.3764 26.2074 22.3767 25.84C22.3777 24.6973 22.3786 23.5548 22.3706 22.4124C22.3706 22.1779 22.4418 22.1256 22.6662 22.1261C24.0423 22.1301 25.4185 22.13 26.7946 22.1298C28.0725 22.1297 29.3504 22.1296 30.6284 22.1328C32.1015 22.1355 33.4075 22.616 34.4521 23.6524C36.2809 25.466 36.2803 28.1509 34.7157 29.9271Z" fill="#2F9A9D"/>
<path d="M35.3444 22.8824C34.6346 22.1339 33.7764 21.6132 32.7556 21.246C33.5117 20.7545 34.1344 20.2003 34.6307 19.5067C35.3731 18.4681 35.7624 17.3051 35.7338 16.0425C35.7012 14.5272 35.1519 13.1919 34.0792 12.0911C32.9211 10.8994 31.5042 10.196 29.8387 10.1646C28.0144 10.1298 26.189 10.1398 24.3638 10.1498C23.5894 10.1541 22.8151 10.1583 22.0408 10.1591C21.3989 10.1597 21.2323 10.3298 21.229 10.9781C21.2231 14.1903 21.2185 17.4027 21.2152 20.6153C21.2152 20.8641 21.143 20.9141 20.9053 20.9136C16.763 20.9066 12.6205 20.9066 8.4775 20.9136C8.22436 20.9136 8.15652 20.8503 8.15707 20.596C8.1659 17.1908 8.16773 13.7858 8.16259 10.3809C8.15927 10.3353 8.15927 10.2895 8.16259 10.2439C8.18961 10.0667 8.12288 9.994 7.93757 10.0061C7.73574 10.0238 7.53274 10.0238 7.33091 10.0061C7.07556 9.97639 7 10.0507 7 10.3254C7.00882 17.7772 7.01121 25.2275 7.00717 32.6764C7.01022 32.7314 7.01022 32.7865 7.00717 32.8415C6.99283 32.9626 7.04467 33.0001 7.1638 32.9962C7.39299 32.9816 7.62289 32.9816 7.85209 32.9962C8.10027 33.0188 8.17251 32.9439 8.17196 32.6858C8.16719 30.9429 8.16642 29.2 8.16565 27.4572C8.1649 25.7766 8.16416 24.0961 8.15983 22.4157C8.15983 22.1647 8.2216 22.0959 8.4764 22.0964C12.6102 22.1045 16.7436 22.1045 20.8766 22.0964C21.1667 22.0964 21.2196 22.1784 21.218 22.4476C21.2014 25.6873 21.1922 28.927 21.1904 32.1667C21.1904 32.743 21.3934 32.945 21.9587 32.945H30.6389C32.3232 32.9478 33.8013 32.4117 35.051 31.2822C36.2643 30.1853 36.9261 28.8125 36.9945 27.1855C37.0629 25.5282 36.4899 24.09 35.3444 22.8824ZM22.3464 16.152C22.3464 15.7849 22.3467 15.4178 22.347 15.0507C22.3479 13.9084 22.3488 12.7659 22.3409 11.6238C22.3409 11.4003 22.4087 11.353 22.6166 11.3541C23.8332 11.3575 25.0498 11.3574 26.2663 11.3572C27.3814 11.3571 28.4965 11.3569 29.6114 11.3596C31.8809 11.3662 33.9733 12.9734 34.4647 15.1668C34.7956 16.6529 34.4339 18.0102 33.4014 19.1594C32.3083 20.3764 30.9295 20.9312 29.2976 20.9235C27.0949 20.9132 24.8918 20.9165 22.6883 20.9334C22.3899 20.9334 22.3353 20.8453 22.3381 20.5707C22.3498 19.4523 22.3485 18.334 22.3472 17.2156C22.3468 16.8611 22.3464 16.5065 22.3464 16.152ZM34.7157 29.9271C33.638 31.1512 32.2686 31.7204 30.6599 31.7314C29.1292 31.7418 27.5986 31.7431 26.0681 31.7445C24.9355 31.7455 23.803 31.7465 22.6707 31.7512C22.4501 31.7512 22.3761 31.7104 22.3778 31.4721C22.387 30.3217 22.386 29.171 22.385 28.0205C22.3847 27.6611 22.3844 27.3016 22.3844 26.9422H22.3761C22.3761 26.5748 22.3764 26.2074 22.3767 25.84C22.3777 24.6973 22.3786 23.5548 22.3706 22.4124C22.3706 22.1779 22.4418 22.1256 22.6662 22.1261C24.0423 22.1301 25.4185 22.13 26.7946 22.1298C28.0725 22.1297 29.3504 22.1296 30.6284 22.1328C32.1015 22.1355 33.4075 22.616 34.4521 23.6524C36.2809 25.466 36.2803 28.1509 34.7157 29.9271Z" stroke="#2F9A9D"/>
</svg>
