<svg width="20" height="20" viewBox="0 0 20 20" fill="none" xmlns="http://www.w3.org/2000/svg">
<path d="M12.5 10.8333C12.0392 10.8333 11.6668 11.2067 11.6668 11.6666V15C11.6668 15.4591 11.2934 15.8333 10.8333 15.8333H8.33331V3.33328C8.33331 2.62161 7.87997 1.98578 7.19836 1.74911L6.95162 1.66656H10.8333C11.2934 1.66656 11.6668 2.04071 11.6668 2.5V5C11.6668 5.4599 12.0392 5.83328 12.5 5.83328C12.9609 5.83328 13.3333 5.4599 13.3333 5V2.5C13.3333 1.12167 12.2117 0 10.8333 0H1.87501C1.84327 0 1.81672 0.0141907 1.7859 0.0183105C1.74576 0.0149536 1.70746 0 1.66672 0C0.747531 0 0 0.747375 0 1.66656V16.6666C0 17.3782 0.45334 18.0141 1.13495 18.2507L6.15008 19.9225C6.32006 19.975 6.48913 20 6.66674 20C7.58594 20 8.33331 19.2525 8.33331 18.3333V17.5H10.8333C12.2117 17.5 13.3333 16.3783 13.3333 15V11.6666C13.3333 11.2067 12.9609 10.8333 12.5 10.8333Z" fill="white"/>
<path d="M19.7558 7.74405L16.4225 4.41089C16.1843 4.17255 15.8259 4.10084 15.5143 4.22993C15.2035 4.35916 15.0001 4.66326 15.0001 5.00001V7.49992H11.6669C11.2069 7.49992 10.8335 7.87313 10.8335 8.33317C10.8335 8.7932 11.2069 9.16642 11.6669 9.16642H15.0001V11.6663C15.0001 12.0031 15.2035 12.3072 15.5143 12.4364C15.8259 12.5655 16.1843 12.4938 16.4225 12.2556L19.7558 8.92229C20.0816 8.59652 20.0816 8.06981 19.7558 7.74405Z" fill="white"/>
</svg>
