<svg width="10" height="13" viewBox="0 0 10 13" fill="none" xmlns="http://www.w3.org/2000/svg">
<path d="M4.65636 0.670898C2.08891 0.670898 0 2.75981 0 5.32726C0 6.3433 0.320931 7.30872 0.928884 8.11868L4.36934 12.7524C4.37793 12.7636 4.39107 12.7679 4.40062 12.7779C4.57254 12.962 4.82064 12.9157 4.94314 12.7524C5.93387 11.4305 7.74985 8.9616 8.44807 8.03033C8.44807 8.03033 8.44831 8.02962 8.44854 8.02914L8.45284 8.02341C9.01543 7.23302 9.31272 6.30079 9.31272 5.32726C9.31272 2.75981 7.2238 0.670898 4.65636 0.670898ZM4.65636 7.8393C3.27402 7.8393 2.14431 6.7096 2.14431 5.32726C2.14431 3.94492 3.27402 2.81521 4.65636 2.81521C6.0387 2.81521 7.1684 3.94492 7.1684 5.32726C7.1684 6.7096 6.0387 7.8393 4.65636 7.8393Z" fill="#C4C4C4"/>
</svg>

