<svg width="19" height="19" viewBox="0 0 19 19" fill="none" xmlns="http://www.w3.org/2000/svg">
<path d="M9.5 0C4.25384 0 0 4.25301 0 9.49958C0 14.7462 4.25343 18.9992 9.5 18.9992C14.747 18.9992 19 14.7462 19 9.49958C19 4.25301 14.747 0 9.5 0ZM9.5 2.84049C11.2359 2.84049 12.6426 4.24758 12.6426 5.98267C12.6426 7.71818 11.2359 9.12486 9.5 9.12486C7.76491 9.12486 6.35823 7.71818 6.35823 5.98267C6.35823 4.24758 7.76491 2.84049 9.5 2.84049ZM9.49791 16.5155C7.76658 16.5155 6.18088 15.8849 4.95781 14.8413C4.65987 14.5872 4.48794 14.2145 4.48794 13.8235C4.48794 12.0638 5.91215 10.6555 7.67227 10.6555H11.3286C13.0891 10.6555 14.5079 12.0638 14.5079 13.8235C14.5079 14.2149 14.3368 14.5868 14.0384 14.8409C12.8158 15.8849 11.2297 16.5155 9.49791 16.5155Z" fill="white"/>
</svg>
