<svg width="30" height="30" viewBox="0 0 30 30" fill="none" xmlns="http://www.w3.org/2000/svg">
<g clip-path="url(#clip0)">
<path d="M14.8212 0.221191C19.4567 0.221191 23.2275 3.99204 23.2275 8.62754C23.2275 13.263 19.4567 17.0339 14.8212 17.0339C10.1857 17.0339 6.41484 13.263 6.41484 8.62754C6.41484 3.99204 10.1857 0.221191 14.8212 0.221191ZM10.2734 8.33572L11.9078 10.011L11.5199 12.3864C11.4647 12.7262 11.6076 13.0685 11.891 13.2678C12.0447 13.3759 12.2272 13.4312 12.4086 13.4312C12.5587 13.4312 12.7088 13.3939 12.8445 13.3183L14.8212 12.2267L16.7979 13.3195C17.0993 13.4864 17.4716 13.4672 17.7526 13.2678C18.0348 13.0685 18.1777 12.7262 18.1237 12.3864L17.7358 10.011L19.369 8.33572C19.6044 8.09434 19.6861 7.74007 19.578 7.42063C19.4711 7.09999 19.1949 6.86821 18.8598 6.81657L16.637 6.47671L15.6354 4.3427C15.34 3.70983 14.3012 3.70983 14.0058 4.3427L13.0042 6.47671L10.7813 6.81657C10.4475 6.86701 10.1701 7.09999 10.0632 7.42063C9.95632 7.74007 10.038 8.09434 10.2734 8.33572Z" fill="#49526D"/>
<path d="M22.0704 15.8076L26.7179 24.1539C26.8741 24.4421 26.862 24.8024 26.6819 25.0786C26.5018 25.3548 26.1895 25.523 25.8533 25.4869L22.1545 25.2107L20.5213 28.5372C20.3651 28.8375 20.0649 29.0296 19.7407 29.0416H19.7166C19.3924 29.0416 19.0802 28.8615 18.9241 28.5853L15.8978 23.2052L18.84 18.0053C20.0529 17.4889 21.1457 16.7323 22.0704 15.8076Z" fill="#49526D"/>
<path d="M2.92978 24.1518L7.61331 15.8535C9.13846 17.3787 11.144 18.4114 13.3777 18.7237C13.846 18.7957 14.3264 18.8318 14.8188 18.8318C15.3471 18.8318 15.8635 18.7957 16.3679 18.7117L14.8668 21.3657L10.7957 28.5831C10.6396 28.8593 10.3394 29.0395 10.0151 29.0395H9.99111C9.65485 29.0275 9.35463 28.8353 9.19851 28.5351L7.55327 25.2086L3.78242 25.4968C3.44617 25.5208 3.13393 25.3647 2.9538 25.0765C2.77366 24.8003 2.76165 24.44 2.92978 24.1518Z" fill="#49526D"/>
</g>
<defs>
<clipPath id="clip0">
<rect width="28.8218" height="28.8218" fill="white" transform="matrix(-1 0 0 1 29.2305 0.217773)"/>
</clipPath>
</defs>
</svg>
