<svg width="20" height="20" viewBox="0 0 20 20" fill="none" xmlns="http://www.w3.org/2000/svg">
<path d="M5.3125 18.8281H5.89844V17.5781H14.1016V18.8281H14.6875C15.0114 18.8281 15.2734 19.0902 15.2734 19.4141C15.2734 19.7379 15.0114 20 14.6875 20H5.3125C4.98863 20 4.72656 19.7379 4.72656 19.4141C4.72656 19.0902 4.98863 18.8281 5.3125 18.8281Z" fill="white"/>
<path d="M9.91725 4.70061L10.0002 4.53467L10.0797 4.69373C10.2241 4.991 10.5164 5.01428 10.5203 5.01818L10.7046 5.04564L10.5781 5.17037C10.4394 5.30252 10.371 5.50182 10.4065 5.69682L10.4356 5.87361L10.2703 5.78779C10.1043 5.70143 9.90143 5.69869 9.73014 5.78779L9.56479 5.87361L9.5951 5.68994C9.62659 5.5017 9.5642 5.30998 9.42858 5.17666L9.29584 5.04564L9.4801 5.01818C9.66893 4.98955 9.83198 4.87111 9.91725 4.70061Z" fill="white"/>
<path d="M0.585938 1.17188H3.56715C3.56227 0.977031 3.55469 0.784219 3.55469 0.585938C3.55469 0.26207 3.81676 0 4.14062 0H15.8594C16.1832 0 16.4453 0.26207 16.4453 0.585938C16.4453 0.784219 16.4377 0.977109 16.4329 1.17188H19.4141C19.7379 1.17188 20 1.43395 20 1.75781V3.24211C20 6.51324 17.3801 9.17043 14.151 9.3423C13.4776 10.2686 12.6757 10.9562 11.7681 11.3468C11.9012 14.0204 13.3198 15.8722 13.7787 16.4062H6.22227C6.68102 15.8759 8.0993 14.0352 8.23242 11.3468C7.32453 10.9563 6.52231 10.2687 5.84883 9.3423C2.61992 9.17035 0 6.5132 0 3.24211V1.75781C0 1.43395 0.26207 1.17188 0.585938 1.17188ZM18.8281 3.24211V2.34375H16.3745C16.1997 4.57613 15.6918 6.53328 14.9155 8.07453C17.1282 7.57629 18.8281 5.60324 18.8281 3.24211ZM7.63793 5.05656L8.38922 5.79641L8.21641 6.83668C8.17977 7.05582 8.2702 7.27672 8.44988 7.4066C8.63012 7.5375 8.86703 7.55496 9.06441 7.45297L10 6.96715L10.9355 7.45297C11.1335 7.55367 11.3704 7.53707 11.5501 7.4066C11.7298 7.27672 11.8202 7.05586 11.7836 6.83668L11.6107 5.79641L12.362 5.05656C12.5232 4.89777 12.5751 4.66344 12.5079 4.45805C12.4393 4.24746 12.2573 4.09297 12.0376 4.0598L10.995 3.90301L10.5241 2.96059C10.3261 2.56348 9.67379 2.56348 9.47582 2.96059L9.00488 3.90301L7.96234 4.0598C7.74262 4.09301 7.56066 4.2475 7.49199 4.45805C7.42336 4.66918 7.48 4.90094 7.63793 5.05656ZM1.17188 3.24211C1.17188 5.60316 2.87176 7.57621 5.08441 8.07445C4.3082 6.5332 3.80023 4.57621 3.62551 2.34375H1.17188V3.24211Z" fill="white"/>
</svg>
