<svg width="29" height="33" viewBox="0 0 29 33" fill="none" xmlns="http://www.w3.org/2000/svg">
<g clip-path="url(#clip0)">
<path d="M23.8732 7.10361C23.8732 5.2826 22.4913 3.78482 20.7189 3.60086C20.2215 2.25942 18.9341 1.30145 17.4192 1.30145C16.7561 1.30145 16.1381 1.48814 15.6087 1.80669C15.0067 0.728574 13.8558 -0.00146484 12.5331 -0.00146484C10.7794 -0.00146484 9.32902 1.28201 9.05989 2.95989C8.91676 2.9424 8.77209 2.93032 8.62428 2.93032C6.67922 2.93032 5.10209 4.50709 5.10209 6.45252C5.10209 6.54781 5.10909 6.64116 5.11649 6.7345C4.13017 7.35875 3.47363 8.45631 3.47363 9.70985C3.47363 10.8179 3.98627 11.805 4.78627 12.4507C4.78277 12.5141 4.77655 12.577 4.77655 12.6413C4.77655 14.5863 6.35331 16.1635 8.29874 16.1635C8.88174 16.1635 9.43013 16.0196 9.91438 15.7691C10.5853 16.251 11.546 16.8538 12.0111 16.7337C12.0111 16.7337 12.1842 19.4142 12.1468 20.0949C12.0757 21.39 11.6871 22.8318 11.4137 23.9986H15.6484C15.6484 23.9986 15.0242 21.3974 14.9969 20.5289C14.9697 19.6604 15.2684 18.0611 15.2684 18.0611L16.7375 16.5416C17.3029 16.9282 17.9859 17.1479 18.7226 17.1479C20.5435 17.1479 22.0414 15.7625 22.2253 13.9901C23.5667 13.4927 24.5247 12.2018 24.5247 10.6869C24.5247 9.79233 24.1886 8.97867 23.6394 8.35719C23.788 7.96742 23.8732 7.54585 23.8732 7.10361ZM10.728 15.1876C11.0104 14.9181 11.2472 14.603 11.4281 14.2534L12.1196 15.7022C12.1192 15.7022 11.7431 15.8683 10.728 15.1876ZM13.3137 16.0822C12.9558 16.1471 12.3464 15.0452 11.9139 14.1495C12.3934 14.3942 12.9348 14.535 13.5104 14.535C13.6582 14.535 13.8033 14.5229 13.9464 14.505C13.8352 15.2218 13.6392 16.0227 13.3137 16.0822ZM14.834 16.7873C14.0063 17.0171 14.5018 15.3027 14.7391 14.3102C14.9106 14.2464 15.0767 14.1713 15.2346 14.0822C15.3299 14.8056 15.6441 15.4583 16.1097 15.9744C15.7064 16.3327 15.242 16.6741 14.834 16.7873Z" fill="#49526D"/>
</g>
<g clip-path="url(#clip1)">
<path d="M14.5821 21.7353C14.5821 20.5212 13.6609 19.5227 12.4793 19.4001C12.1477 18.5058 11.2894 17.8671 10.2795 17.8671C9.83739 17.8671 9.42537 17.9916 9.07247 18.204C8.67111 17.4852 7.90388 16.9985 7.02204 16.9985C5.85291 16.9985 4.88601 17.8542 4.70659 18.9728C4.61117 18.9611 4.51472 18.9531 4.41619 18.9531C3.11948 18.9531 2.06806 20.0042 2.06806 21.3012C2.06806 21.3647 2.07273 21.427 2.07766 21.4892C1.42012 21.9053 0.982422 22.6371 0.982422 23.4727C0.982422 24.2115 1.32418 24.8695 1.85751 25.3C1.85518 25.3422 1.85103 25.3842 1.85103 25.427C1.85103 26.7237 2.90221 27.7752 4.19916 27.7752C4.58783 27.7752 4.95342 27.6792 5.27626 27.5122C5.72352 27.8335 6.36398 28.2354 6.67407 28.1553C6.67407 28.1553 6.78945 29.9423 6.76456 30.3961C6.7171 31.2595 6.45807 32.2207 6.2758 32.9986H9.09896C9.09896 32.9986 8.6828 31.2645 8.66463 30.6855C8.64649 30.1064 8.84562 29.0402 8.84562 29.0402L9.82497 28.0272C10.202 28.2849 10.6573 28.4315 11.1484 28.4315C12.3624 28.4315 13.3609 27.5079 13.4835 26.3263C14.3778 25.9946 15.0165 25.134 15.0165 24.1241C15.0165 23.5277 14.7924 22.9853 14.4263 22.571C14.5253 22.3111 14.5821 22.0301 14.5821 21.7353ZM5.81867 27.1246C6.0069 26.9449 6.16482 26.7349 6.28538 26.5018L6.74639 27.4676C6.74615 27.4676 6.49541 27.5784 5.81867 27.1246ZM7.54244 27.721C7.30388 27.7643 6.89758 27.0297 6.60924 26.4325C6.92896 26.5956 7.28989 26.6895 7.67362 26.6895C7.77216 26.6895 7.86888 26.6815 7.9643 26.6695C7.89014 27.1474 7.75947 27.6813 7.54244 27.721ZM8.55601 28.191C8.00421 28.3443 8.33456 27.2013 8.49272 26.5396C8.60709 26.4971 8.7178 26.4471 8.82306 26.3877C8.88659 26.8699 9.09609 27.305 9.40648 27.6491C9.13757 27.888 8.82797 28.1156 8.55601 28.191Z" fill="#49526D"/>
</g>
<g clip-path="url(#clip2)">
<path d="M27.5821 21.7353C27.5821 20.5212 26.6609 19.5227 25.4793 19.4001C25.1477 18.5058 24.2894 17.8671 23.2795 17.8671C22.8374 17.8671 22.4254 17.9916 22.0725 18.204C21.6711 17.4852 20.9039 16.9985 20.022 16.9985C18.8529 16.9985 17.886 17.8542 17.7066 18.9728C17.6112 18.9611 17.5147 18.9531 17.4162 18.9531C16.1195 18.9531 15.0681 20.0042 15.0681 21.3012C15.0681 21.3647 15.0727 21.427 15.0777 21.4892C14.4201 21.9053 13.9824 22.6371 13.9824 23.4727C13.9824 24.2115 14.3242 24.8695 14.8575 25.3C14.8552 25.3422 14.851 25.3842 14.851 25.427C14.851 26.7237 15.9022 27.7752 17.1992 27.7752C17.5878 27.7752 17.9534 27.6792 18.2763 27.5122C18.7235 27.8335 19.364 28.2354 19.6741 28.1553C19.6741 28.1553 19.7894 29.9423 19.7646 30.3961C19.7171 31.2595 19.4581 32.2207 19.2758 32.9986H22.099C22.099 32.9986 21.6828 31.2645 21.6646 30.6855C21.6465 30.1064 21.8456 29.0402 21.8456 29.0402L22.825 28.0272C23.202 28.2849 23.6573 28.4315 24.1484 28.4315C25.3624 28.4315 26.3609 27.5079 26.4835 26.3263C27.3778 25.9946 28.0165 25.134 28.0165 24.1241C28.0165 23.5277 27.7924 22.9853 27.4263 22.571C27.5253 22.3111 27.5821 22.0301 27.5821 21.7353ZM18.8187 27.1246C19.0069 26.9449 19.1648 26.7349 19.2854 26.5018L19.7464 27.4676C19.7461 27.4676 19.4954 27.5784 18.8187 27.1246ZM20.5424 27.721C20.3039 27.7643 19.8976 27.0297 19.6092 26.4325C19.929 26.5956 20.2899 26.6895 20.6736 26.6895C20.7722 26.6895 20.8689 26.6815 20.9643 26.6695C20.8901 27.1474 20.7595 27.6813 20.5424 27.721ZM21.556 28.191C21.0042 28.3443 21.3346 27.2013 21.4927 26.5396C21.6071 26.4971 21.7178 26.4471 21.8231 26.3877C21.8866 26.8699 22.0961 27.305 22.4065 27.6491C22.1376 27.888 21.828 28.1156 21.556 28.191Z" fill="#49526D"/>
</g>
<defs>
<clipPath id="clip0">
<rect width="24" height="24" fill="white" transform="translate(2)"/>
</clipPath>
<clipPath id="clip1">
<rect width="16" height="16" fill="white" transform="translate(0 17)"/>
</clipPath>
<clipPath id="clip2">
<rect width="16" height="16" fill="white" transform="translate(13 17)"/>
</clipPath>
</defs>
</svg>
