<svg width="29" height="29" viewBox="0 0 29 29" fill="none" xmlns="http://www.w3.org/2000/svg">
<g clip-path="url(#clip0)">
<path d="M26.3812 8.59595C26.3812 6.50021 24.7332 4.77646 22.6196 4.56474C22.0264 3.02093 20.4911 1.91843 18.6846 1.91843C17.8938 1.91843 17.1567 2.13329 16.5255 2.4999C15.8075 1.25912 14.4351 0.418945 12.8577 0.418945C10.7663 0.418945 9.03671 1.89606 8.71576 3.82708C8.54508 3.80695 8.37255 3.79305 8.19629 3.79305C5.87674 3.79305 3.99595 5.6077 3.99595 7.84663C3.99595 7.95631 4.00429 8.06373 4.01312 8.17116C2.8369 8.88959 2.05396 10.1527 2.05396 11.5954C2.05396 12.8707 2.6653 14.0067 3.61932 14.7497C3.61515 14.8227 3.60773 14.8952 3.60773 14.9691C3.60773 17.2076 5.48808 19.0227 7.80806 19.0227C8.50332 19.0227 9.15729 18.857 9.73478 18.5688C10.5349 19.1234 11.6805 19.8172 12.2352 19.6789C12.2352 19.6789 12.4416 22.7638 12.3971 23.5472C12.3122 25.0377 11.8488 26.697 11.5228 28.0399H16.5729C16.5729 28.0399 15.8284 25.0463 15.7959 24.0467C15.7635 23.0472 16.1197 21.2066 16.1197 21.2066L17.8715 19.4578C18.5459 19.9027 19.3604 20.1556 20.2389 20.1556C22.4104 20.1556 24.1966 18.5612 24.416 16.5214C26.0157 15.9489 27.1581 14.4633 27.1581 12.7198C27.1581 11.6903 26.7573 10.7539 26.1024 10.0387C26.2796 9.59009 26.3812 9.10491 26.3812 8.59595ZM10.7051 17.8996C11.0418 17.5894 11.3243 17.2268 11.5399 16.8244L12.3646 18.4918C12.3641 18.4918 11.9156 18.6829 10.7051 17.8996ZM13.7885 18.9291C13.3618 19.0038 12.635 17.7357 12.1192 16.7049C12.6911 16.9864 13.3368 17.1485 14.0232 17.1485C14.1995 17.1485 14.3725 17.1346 14.5432 17.114C14.4105 17.939 14.1768 18.8606 13.7885 18.9291ZM15.6016 19.7406C14.6146 20.0051 15.2055 18.032 15.4884 16.8898C15.693 16.8164 15.891 16.73 16.0793 16.6274C16.193 17.46 16.5677 18.2111 17.1229 18.805C16.6419 19.2174 16.0881 19.6103 15.6016 19.7406Z" fill="#49526D"/>
</g>
<defs>
<clipPath id="clip0">
<rect width="28.6209" height="27.6209" fill="white" transform="translate(0.296875 0.420898)"/>
</clipPath>
</defs>
</svg>
